<mxfile host="app.diagrams.net" modified="2023-12-21T06:11:28.212Z" agent="Mozilla/5.0 (Windows NT 10.0; Win64; x64) AppleWebKit/537.36 (KHTML, like Gecko) Chrome/120.0.0.0 Safari/537.36" etag="CeKqQ2M2Mc18iP93crK8" version="22.1.11" type="github">
  <diagram name="Page-1" id="ECTTtBE43RO5MGSe00EO">
    <mxGraphModel dx="1419" dy="521" grid="1" gridSize="10" guides="1" tooltips="1" connect="1" arrows="1" fold="1" page="1" pageScale="1" pageWidth="850" pageHeight="1100" math="0" shadow="0">
      <root>
        <mxCell id="0" />
        <mxCell id="1" parent="0" />
        <mxCell id="vEHFzAOvwNYCjVcifSb5-3" value="" style="sketch=0;pointerEvents=1;shadow=0;dashed=0;html=1;strokeColor=none;fillColor=#3399FF;labelPosition=center;verticalLabelPosition=bottom;outlineConnect=0;verticalAlign=top;align=center;shape=mxgraph.office.clouds.cloud;" vertex="1" parent="1">
          <mxGeometry y="249" width="153.82" height="90" as="geometry" />
        </mxCell>
        <mxCell id="vEHFzAOvwNYCjVcifSb5-5" value="browser" style="sketch=0;pointerEvents=1;shadow=0;dashed=0;html=1;strokeColor=none;fillColor=#505050;labelPosition=center;verticalLabelPosition=bottom;verticalAlign=top;outlineConnect=0;align=center;shape=mxgraph.office.devices.laptop;" vertex="1" parent="1">
          <mxGeometry x="-290" y="270" width="127.94" height="75" as="geometry" />
        </mxCell>
        <mxCell id="vEHFzAOvwNYCjVcifSb5-7" value="" style="group" vertex="1" connectable="0" parent="1">
          <mxGeometry x="310" y="270" width="88" height="72.82999999999998" as="geometry" />
        </mxCell>
        <mxCell id="vEHFzAOvwNYCjVcifSb5-4" value="api.github.com:443" style="sketch=0;pointerEvents=1;shadow=0;dashed=0;html=1;strokeColor=none;fillColor=#505050;labelPosition=center;verticalLabelPosition=bottom;verticalAlign=top;outlineConnect=0;align=center;shape=mxgraph.office.devices.mac_client;" vertex="1" parent="vEHFzAOvwNYCjVcifSb5-7">
          <mxGeometry width="88" height="72.83" as="geometry" />
        </mxCell>
        <mxCell id="vEHFzAOvwNYCjVcifSb5-6" value="" style="sketch=0;pointerEvents=1;shadow=0;dashed=0;html=1;strokeColor=none;fillColor=#3399FF;labelPosition=center;verticalLabelPosition=bottom;outlineConnect=0;verticalAlign=top;align=center;shape=mxgraph.office.clouds.cloud;" vertex="1" parent="vEHFzAOvwNYCjVcifSb5-7">
          <mxGeometry x="27" y="20" width="34" height="19.89" as="geometry" />
        </mxCell>
        <mxCell id="vEHFzAOvwNYCjVcifSb5-8" value="" style="html=1;verticalLabelPosition=bottom;align=center;labelBackgroundColor=#ffffff;verticalAlign=top;strokeWidth=2;strokeColor=#0080F0;shadow=0;dashed=0;shape=mxgraph.ios7.icons.mail;" vertex="1" parent="1">
          <mxGeometry x="-100" y="326.33" width="30" height="16.5" as="geometry" />
        </mxCell>
        <mxCell id="vEHFzAOvwNYCjVcifSb5-9" value="&lt;br&gt;" style="endArrow=classic;html=1;rounded=0;" edge="1" parent="1">
          <mxGeometry width="50" height="50" relative="1" as="geometry">
            <mxPoint x="-160" y="280" as="sourcePoint" />
            <mxPoint x="300" y="280" as="targetPoint" />
          </mxGeometry>
        </mxCell>
        <mxCell id="vEHFzAOvwNYCjVcifSb5-10" value="&lt;br&gt;" style="endArrow=classic;html=1;rounded=0;" edge="1" parent="1">
          <mxGeometry width="50" height="50" relative="1" as="geometry">
            <mxPoint x="300" y="320" as="sourcePoint" />
            <mxPoint x="-140" y="320" as="targetPoint" />
          </mxGeometry>
        </mxCell>
        <mxCell id="vEHFzAOvwNYCjVcifSb5-11" value="&lt;font style=&quot;font-size: 24px;&quot;&gt;Anatomy of a REST API query&lt;/font&gt;" style="text;strokeColor=none;align=center;fillColor=none;html=1;verticalAlign=middle;whiteSpace=wrap;rounded=0;" vertex="1" parent="1">
          <mxGeometry x="-153.09" y="80" width="460" height="30" as="geometry" />
        </mxCell>
        <mxCell id="vEHFzAOvwNYCjVcifSb5-14" value="" style="shape=curlyBracket;whiteSpace=wrap;html=1;rounded=1;labelPosition=left;verticalLabelPosition=middle;align=right;verticalAlign=middle;" vertex="1" parent="1">
          <mxGeometry x="248.92000000000002" y="160" width="3.33" height="40" as="geometry" />
        </mxCell>
        <mxCell id="vEHFzAOvwNYCjVcifSb5-15" value="HTTP&lt;br&gt;request" style="text;strokeColor=none;align=center;fillColor=none;html=1;verticalAlign=middle;whiteSpace=wrap;rounded=0;" vertex="1" parent="1">
          <mxGeometry x="244.45999999999998" y="163" width="60" height="30" as="geometry" />
        </mxCell>
        <mxCell id="vEHFzAOvwNYCjVcifSb5-16" value="headers" style="text;strokeColor=none;align=center;fillColor=none;html=1;verticalAlign=middle;whiteSpace=wrap;rounded=0;" vertex="1" parent="1">
          <mxGeometry x="145.54" y="160" width="60" height="30" as="geometry" />
        </mxCell>
        <mxCell id="vEHFzAOvwNYCjVcifSb5-33" style="edgeStyle=orthogonalEdgeStyle;rounded=0;orthogonalLoop=1;jettySize=auto;html=1;exitX=0.5;exitY=1;exitDx=0;exitDy=0;entryX=0.5;entryY=0;entryDx=0;entryDy=0;" edge="1" parent="1" source="vEHFzAOvwNYCjVcifSb5-17" target="vEHFzAOvwNYCjVcifSb5-23">
          <mxGeometry relative="1" as="geometry" />
        </mxCell>
        <mxCell id="vEHFzAOvwNYCjVcifSb5-17" value="method" style="text;strokeColor=none;align=center;fillColor=none;html=1;verticalAlign=middle;whiteSpace=wrap;rounded=0;" vertex="1" parent="1">
          <mxGeometry x="-180" y="160" width="60" height="30" as="geometry" />
        </mxCell>
        <mxCell id="vEHFzAOvwNYCjVcifSb5-34" style="edgeStyle=orthogonalEdgeStyle;rounded=0;orthogonalLoop=1;jettySize=auto;html=1;exitX=0.5;exitY=1;exitDx=0;exitDy=0;entryX=0.5;entryY=0;entryDx=0;entryDy=0;" edge="1" parent="1" source="vEHFzAOvwNYCjVcifSb5-18" target="vEHFzAOvwNYCjVcifSb5-25">
          <mxGeometry relative="1" as="geometry" />
        </mxCell>
        <mxCell id="vEHFzAOvwNYCjVcifSb5-18" value="path" style="text;strokeColor=none;align=center;fillColor=none;html=1;verticalAlign=middle;whiteSpace=wrap;rounded=0;" vertex="1" parent="1">
          <mxGeometry x="-130" y="160" width="60" height="30" as="geometry" />
        </mxCell>
        <mxCell id="vEHFzAOvwNYCjVcifSb5-19" value="parameters" style="text;strokeColor=none;align=center;fillColor=none;html=1;verticalAlign=middle;whiteSpace=wrap;rounded=0;" vertex="1" parent="1">
          <mxGeometry x="-82" y="160" width="60" height="30" as="geometry" />
        </mxCell>
        <mxCell id="vEHFzAOvwNYCjVcifSb5-20" value="protocol" style="text;strokeColor=none;align=center;fillColor=none;html=1;verticalAlign=middle;whiteSpace=wrap;rounded=0;" vertex="1" parent="1">
          <mxGeometry x="-22" y="160" width="60" height="30" as="geometry" />
        </mxCell>
        <mxCell id="vEHFzAOvwNYCjVcifSb5-21" value="" style="shape=curlyBracket;whiteSpace=wrap;html=1;rounded=1;labelPosition=left;verticalLabelPosition=middle;align=right;verticalAlign=middle;" vertex="1" parent="1">
          <mxGeometry x="244.45999999999998" y="380" width="3.33" height="40" as="geometry" />
        </mxCell>
        <mxCell id="vEHFzAOvwNYCjVcifSb5-22" value="HTTP&lt;br&gt;request" style="text;strokeColor=none;align=center;fillColor=none;html=1;verticalAlign=middle;whiteSpace=wrap;rounded=0;" vertex="1" parent="1">
          <mxGeometry x="240" y="383" width="60" height="30" as="geometry" />
        </mxCell>
        <mxCell id="vEHFzAOvwNYCjVcifSb5-23" value="GET" style="text;strokeColor=none;align=center;fillColor=none;html=1;verticalAlign=middle;whiteSpace=wrap;rounded=0;" vertex="1" parent="1">
          <mxGeometry x="-180" y="250" width="60" height="30" as="geometry" />
        </mxCell>
        <mxCell id="vEHFzAOvwNYCjVcifSb5-25" value="/../repos?" style="text;strokeColor=none;align=center;fillColor=none;html=1;verticalAlign=middle;whiteSpace=wrap;rounded=0;" vertex="1" parent="1">
          <mxGeometry x="-130" y="250" width="60" height="30" as="geometry" />
        </mxCell>
        <mxCell id="vEHFzAOvwNYCjVcifSb5-26" value="HTTP/1.1" style="text;strokeColor=none;align=center;fillColor=none;html=1;verticalAlign=middle;whiteSpace=wrap;rounded=0;" vertex="1" parent="1">
          <mxGeometry x="-22" y="250" width="60" height="30" as="geometry" />
        </mxCell>
        <mxCell id="vEHFzAOvwNYCjVcifSb5-27" value="" style="group" vertex="1" connectable="0" parent="1">
          <mxGeometry x="-277" y="120" width="577" height="30" as="geometry" />
        </mxCell>
        <mxCell id="vEHFzAOvwNYCjVcifSb5-12" value="URL:" style="text;strokeColor=none;align=center;fillColor=none;html=1;verticalAlign=middle;whiteSpace=wrap;rounded=0;" vertex="1" parent="vEHFzAOvwNYCjVcifSb5-27">
          <mxGeometry width="60" height="30" as="geometry" />
        </mxCell>
        <mxCell id="vEHFzAOvwNYCjVcifSb5-30" value="Accept: application/json" style="text;strokeColor=none;align=center;fillColor=none;html=1;verticalAlign=middle;whiteSpace=wrap;rounded=0;" vertex="1" parent="1">
          <mxGeometry x="145.54" y="250" width="134.46" height="30" as="geometry" />
        </mxCell>
        <mxCell id="vEHFzAOvwNYCjVcifSb5-32" value="page=1" style="text;strokeColor=none;align=center;fillColor=none;html=1;verticalAlign=middle;whiteSpace=wrap;rounded=0;" vertex="1" parent="1">
          <mxGeometry x="-81" y="250" width="60" height="30" as="geometry" />
        </mxCell>
        <mxCell id="vEHFzAOvwNYCjVcifSb5-35" style="edgeStyle=orthogonalEdgeStyle;rounded=0;orthogonalLoop=1;jettySize=auto;html=1;exitX=0.5;exitY=1;exitDx=0;exitDy=0;entryX=0.498;entryY=-0.327;entryDx=0;entryDy=0;entryPerimeter=0;" edge="1" parent="1" source="vEHFzAOvwNYCjVcifSb5-19" target="vEHFzAOvwNYCjVcifSb5-32">
          <mxGeometry relative="1" as="geometry" />
        </mxCell>
        <mxCell id="vEHFzAOvwNYCjVcifSb5-36" style="edgeStyle=orthogonalEdgeStyle;rounded=0;orthogonalLoop=1;jettySize=auto;html=1;exitX=0.5;exitY=1;exitDx=0;exitDy=0;entryX=0.488;entryY=-0.273;entryDx=0;entryDy=0;entryPerimeter=0;" edge="1" parent="1" source="vEHFzAOvwNYCjVcifSb5-20" target="vEHFzAOvwNYCjVcifSb5-26">
          <mxGeometry relative="1" as="geometry" />
        </mxCell>
        <mxCell id="vEHFzAOvwNYCjVcifSb5-37" style="edgeStyle=orthogonalEdgeStyle;rounded=0;orthogonalLoop=1;jettySize=auto;html=1;exitX=0.5;exitY=1;exitDx=0;exitDy=0;entryX=0.227;entryY=-0.327;entryDx=0;entryDy=0;entryPerimeter=0;" edge="1" parent="1" source="vEHFzAOvwNYCjVcifSb5-16" target="vEHFzAOvwNYCjVcifSb5-30">
          <mxGeometry relative="1" as="geometry" />
        </mxCell>
        <mxCell id="vEHFzAOvwNYCjVcifSb5-38" value="JSON payload" style="text;strokeColor=none;align=center;fillColor=none;html=1;verticalAlign=middle;whiteSpace=wrap;rounded=0;" vertex="1" parent="1">
          <mxGeometry x="-81" y="339" width="100" height="30" as="geometry" />
        </mxCell>
        <mxCell id="vEHFzAOvwNYCjVcifSb5-42" style="edgeStyle=orthogonalEdgeStyle;rounded=0;orthogonalLoop=1;jettySize=auto;html=1;exitX=0.5;exitY=0;exitDx=0;exitDy=0;entryX=0.5;entryY=1;entryDx=0;entryDy=0;" edge="1" parent="1" source="vEHFzAOvwNYCjVcifSb5-39" target="vEHFzAOvwNYCjVcifSb5-38">
          <mxGeometry relative="1" as="geometry" />
        </mxCell>
        <mxCell id="vEHFzAOvwNYCjVcifSb5-39" value="response body" style="text;strokeColor=none;align=center;fillColor=none;html=1;verticalAlign=middle;whiteSpace=wrap;rounded=0;" vertex="1" parent="1">
          <mxGeometry x="-82" y="390" width="100" height="30" as="geometry" />
        </mxCell>
        <mxCell id="vEHFzAOvwNYCjVcifSb5-43" style="edgeStyle=orthogonalEdgeStyle;rounded=0;orthogonalLoop=1;jettySize=auto;html=1;exitX=0.5;exitY=0;exitDx=0;exitDy=0;entryX=0.5;entryY=1;entryDx=0;entryDy=0;" edge="1" parent="1" source="vEHFzAOvwNYCjVcifSb5-40" target="vEHFzAOvwNYCjVcifSb5-41">
          <mxGeometry relative="1" as="geometry" />
        </mxCell>
        <mxCell id="vEHFzAOvwNYCjVcifSb5-40" value="response body" style="text;strokeColor=none;align=center;fillColor=none;html=1;verticalAlign=middle;whiteSpace=wrap;rounded=0;" vertex="1" parent="1">
          <mxGeometry x="140" y="385" width="100" height="30" as="geometry" />
        </mxCell>
        <mxCell id="vEHFzAOvwNYCjVcifSb5-41" value="200 OK" style="text;strokeColor=none;align=center;fillColor=none;html=1;verticalAlign=middle;whiteSpace=wrap;rounded=0;" vertex="1" parent="1">
          <mxGeometry x="140" y="326.33" width="100" height="30" as="geometry" />
        </mxCell>
      </root>
    </mxGraphModel>
  </diagram>
</mxfile>
